<svg width="240" height="83" viewBox="0 0 240 83" fill="none" xmlns="http://www.w3.org/2000/svg">
<rect width="240" height="83" rx="20" fill="white"/>
<path d="M66.0687 15H27.3664C23.2984 15 20 18.2674 20 22.2981V60.6456C20 64.6761 23.2984 67.9437 27.3664 67.9437H66.0687C70.1366 67.9437 73.4351 64.6761 73.4351 60.6456V22.2981C73.4351 18.2674 70.1366 15 66.0687 15ZM66.3177 42.5814C65.285 45.7312 63.6434 47.391 61.2264 49.7129C59.2554 51.6065 57.3147 53.5305 55.3739 55.4531C53.8374 56.9754 52.1365 58.7371 50.6334 60.2072C50.1212 60.7077 49.8139 60.9737 49.4629 61.3093V45.5389C49.4855 45.1411 49.5047 44.9224 49.5798 44.6108C49.7127 44.0631 49.7971 43.5037 49.9893 42.9875C50.5933 41.3642 51.331 40.122 52.2718 38.8706C53.0521 38.1174 53.7739 37.3633 54.5544 36.6092C55.2519 35.8493 55.9287 35.2477 56.6029 34.5797C57.5979 33.5754 58.593 32.5703 59.5872 31.5651C61.5881 29.5837 63.0293 28.4418 63.274 25.1296C61.1562 25.0841 59.7383 25.9169 58.593 26.869C58.2905 27.1201 57.9554 27.5179 57.6563 27.7963C57.4934 27.9488 57.3214 28.1327 57.3047 28.1443C57.2102 28.2123 56.7992 28.6482 56.6614 28.7824C56.1099 29.3202 55.7666 29.6144 55.14 30.2897C54.886 30.5217 54.5734 30.869 54.3203 31.1011C53.7414 31.6753 53.2041 32.2338 52.6235 32.7824C52.3302 33.0924 51.9794 33.4014 51.687 33.7105C50.6685 34.719 49.6559 35.8385 48.4679 36.6681C47.1194 37.6086 45.5831 38.2499 43.7275 38.6386C42.4809 38.9004 39.8592 38.8126 37.9919 38.8126H26.6971C27.5618 37.9923 31.7409 33.8158 32.3733 33.1884C34.442 31.14 36.5089 29.0915 38.5776 27.043C40.5643 25.0741 42.3489 23.1442 45.3658 22.1721C47.4795 21.4918 50.4773 21.6509 53.2669 21.6509H66.7272V35.2178C66.6577 38.1422 66.956 40.6349 66.3177 42.5814Z" fill="#00B1FF"/>
<path d="M86.7788 41.5022C86.7788 39.4427 87.2571 37.5953 88.2139 35.9599C89.191 34.3245 90.504 33.0525 92.1528 32.1439C93.822 31.2152 95.644 30.7507 97.6185 30.7507C99.878 30.7507 101.883 31.306 103.634 32.4165C105.405 33.5067 106.687 35.0615 107.481 37.0805H103.298C102.748 35.97 101.985 35.1422 101.008 34.597C100.031 34.0519 98.9009 33.7793 97.6185 33.7793C96.2139 33.7793 94.962 34.0923 93.8628 34.7182C92.7635 35.3442 91.8983 36.2426 91.2674 37.4136C90.6567 38.5848 90.3513 39.9476 90.3513 41.5022C90.3513 43.0569 90.6567 44.4198 91.2674 45.5908C91.8983 46.7619 92.7635 47.6705 93.8628 48.3165C94.962 48.9425 96.2139 49.2553 97.6185 49.2553C98.9009 49.2553 100.031 48.9827 101.008 48.4376C101.985 47.8925 102.748 47.0648 103.298 45.9542H107.481C106.687 47.9733 105.405 49.5279 103.634 50.6182C101.883 51.7085 99.878 52.2536 97.6185 52.2536C95.6235 52.2536 93.8017 51.7993 92.1528 50.8908C90.504 49.962 89.191 48.6799 88.2139 47.0445C87.2571 45.409 86.7788 43.5616 86.7788 41.5022ZM110.395 43.6525C110.395 41.9768 110.741 40.4928 111.433 39.2005C112.146 37.9083 113.103 36.9089 114.304 36.2022C115.525 35.4753 116.869 35.1119 118.334 35.1119C119.657 35.1119 120.808 35.3745 121.785 35.8993C122.782 36.4042 123.576 37.0402 124.166 37.8073V35.3845H127.678V52.0719H124.166V49.5885C123.576 50.3759 122.772 51.0322 121.754 51.557C120.736 52.082 119.576 52.3445 118.273 52.3445C116.828 52.3445 115.505 51.981 114.304 51.2542C113.103 50.5072 112.146 49.4775 111.433 48.165C110.741 46.8325 110.395 45.3283 110.395 43.6525ZM124.166 43.713C124.166 42.5622 123.922 41.5627 123.433 40.7147C122.965 39.8667 122.344 39.2208 121.571 38.7765C120.797 38.3323 119.963 38.1102 119.067 38.1102C118.171 38.1102 117.337 38.3323 116.563 38.7765C115.79 39.2005 115.159 39.8365 114.67 40.6845C114.202 41.5123 113.968 42.5016 113.968 43.6525C113.968 44.8033 114.202 45.8129 114.67 46.681C115.159 47.5493 115.79 48.2156 116.563 48.6799C117.357 49.1242 118.192 49.3462 119.067 49.3462C119.963 49.3462 120.797 49.1242 121.571 48.6799C122.344 48.2358 122.965 47.5896 123.433 46.7416C123.922 45.8735 124.166 44.8639 124.166 43.713ZM135.731 37.8073C136.24 36.9593 136.911 36.3032 137.746 35.8387C138.601 35.3542 139.608 35.1119 140.769 35.1119V38.6856H139.883C138.519 38.6856 137.481 39.0289 136.769 39.7153C136.077 40.4019 135.731 41.593 135.731 43.289V52.0719H132.25V35.3845H135.731V37.8073ZM142.808 43.6525C142.808 41.9768 143.154 40.4928 143.846 39.2005C144.559 37.9083 145.516 36.9089 146.717 36.2022C147.938 35.4753 149.292 35.1119 150.778 35.1119C151.877 35.1119 152.956 35.3542 154.014 35.8387C155.093 36.3032 155.948 36.929 156.579 37.7165V29.6605H160.091V52.0719H156.579V49.5582C156.009 50.3659 155.215 51.0322 154.197 51.557C153.2 52.082 152.05 52.3445 150.747 52.3445C149.281 52.3445 147.938 51.981 146.717 51.2542C145.516 50.5072 144.559 49.4775 143.846 48.165C143.154 46.8325 142.808 45.3283 142.808 43.6525ZM156.579 43.713C156.579 42.5622 156.335 41.5627 155.846 40.7147C155.378 39.8667 154.757 39.2208 153.984 38.7765C153.21 38.3323 152.376 38.1102 151.48 38.1102C150.584 38.1102 149.75 38.3323 148.976 38.7765C148.203 39.2005 147.571 39.8365 147.083 40.6845C146.615 41.5123 146.381 42.5016 146.381 43.6525C146.381 44.8033 146.615 45.8129 147.083 46.681C147.571 47.5493 148.203 48.2156 148.976 48.6799C149.77 49.1242 150.605 49.3462 151.48 49.3462C152.376 49.3462 153.21 49.1242 153.984 48.6799C154.757 48.2358 155.378 47.5896 155.846 46.7416C156.335 45.8735 156.579 44.8639 156.579 43.713ZM166.434 33.1736C165.803 33.1736 165.273 32.9616 164.846 32.5376C164.418 32.1136 164.205 31.5888 164.205 30.9627C164.205 30.3369 164.418 29.812 164.846 29.388C165.273 28.964 165.803 28.752 166.434 28.752C167.044 28.752 167.563 28.964 167.991 29.388C168.418 29.812 168.632 30.3369 168.632 30.9627C168.632 31.5888 168.418 32.1136 167.991 32.5376C167.563 32.9616 167.044 33.1736 166.434 33.1736ZM168.144 35.3845V52.0719H164.663V35.3845H168.144ZM181.202 35.1119C182.525 35.1119 183.706 35.3845 184.744 35.9296C185.803 36.4747 186.628 37.2825 187.217 38.3525C187.808 39.4226 188.102 40.7147 188.102 42.229V52.0719H184.652V42.7439C184.652 41.2499 184.277 40.109 183.522 39.3216C182.77 38.514 181.742 38.1102 180.438 38.1102C179.136 38.1102 178.098 38.514 177.324 39.3216C176.571 40.109 176.194 41.2499 176.194 42.7439V52.0719H172.713V35.3845H176.194V37.2925C176.765 36.606 177.487 36.071 178.362 35.6873C179.258 35.3038 180.205 35.1119 181.202 35.1119ZM191.383 43.6525C191.383 41.9768 191.728 40.4928 192.422 39.2005C193.133 37.9083 194.09 36.9089 195.292 36.2022C196.513 35.4753 197.857 35.1119 199.322 35.1119C200.644 35.1119 201.796 35.3745 202.773 35.8993C203.77 36.4042 204.564 37.0402 205.154 37.8073V35.3845H208.666V52.0719H205.154V49.5885C204.564 50.3759 203.759 51.0322 202.742 51.557C201.724 52.082 200.564 52.3445 199.261 52.3445C197.815 52.3445 196.492 51.981 195.292 51.2542C194.09 50.5072 193.133 49.4775 192.422 48.165C191.728 46.8325 191.383 45.3283 191.383 43.6525ZM205.154 43.713C205.154 42.5622 204.91 41.5627 204.422 40.7147C203.953 39.8667 203.331 39.2208 202.559 38.7765C201.785 38.3323 200.95 38.1102 200.055 38.1102C199.159 38.1102 198.324 38.3323 197.551 38.7765C196.777 39.2005 196.147 39.8365 195.658 40.6845C195.189 41.5123 194.956 42.5016 194.956 43.6525C194.956 44.8033 195.189 45.8129 195.658 46.681C196.147 47.5493 196.777 48.2156 197.551 48.6799C198.345 49.1242 199.179 49.3462 200.055 49.3462C200.95 49.3462 201.785 49.1242 202.559 48.6799C203.331 48.2358 203.953 47.5896 204.422 46.7416C204.91 45.8735 205.154 44.8639 205.154 43.713ZM216.718 29.6605V52.0719H213.237V29.6605H216.718Z" fill="#00B1FF"/>
</svg>
