<svg width="250" height="106" viewBox="0 0 250 106" fill="none" xmlns="http://www.w3.org/2000/svg">
<rect width="250" height="105.223" rx="20" fill="white"/>
<path d="M134.836 88.685V84.4147C133.366 85.9548 131.616 87.2149 129.446 88.1249C127.346 89.035 124.966 89.455 122.306 89.455C119.786 89.455 117.545 89.035 115.445 88.1949C113.415 87.3549 111.665 86.1648 110.195 84.6947C108.725 83.1547 107.605 81.4046 106.835 79.2345C106.065 77.1343 105.645 74.7542 105.645 72.0941V45.7026H117.195V70.064C117.195 72.6541 117.895 74.6842 119.296 76.2943C120.696 77.9044 122.656 78.6744 125.176 78.6744C128.046 78.6744 130.286 77.8344 132.036 76.1543C133.786 74.4742 134.626 72.1641 134.626 69.0839V45.7026H146.317V88.685H134.836Z" fill="#1D2235"/>
<path d="M154.502 88.6864V45.7041H166.123V51.5844C167.593 49.6243 169.343 48.0842 171.443 46.8941C173.543 45.7041 175.923 45.144 178.583 45.144V56.9047C174.313 56.9047 171.163 58.0247 169.133 60.1948C167.173 62.4349 166.193 65.3751 166.193 69.1554V88.7564L154.502 88.6864Z" fill="#1D2235"/>
<path d="M223.53 80.0028C221.43 83.1529 218.7 85.6731 215.34 87.4932C211.98 89.3133 207.919 90.2233 203.159 90.2233C199.729 90.2233 196.579 89.6633 193.849 88.4732C191.119 87.3532 188.739 85.7431 186.709 83.783C184.749 81.8229 183.208 79.4427 182.158 76.7126C181.108 73.9824 180.548 71.0423 180.548 67.8221C180.548 64.7419 181.108 61.8718 182.228 59.1416C183.348 56.4115 184.889 54.0314 186.919 52.0013C188.949 49.9711 191.329 48.3611 194.129 47.171C196.929 45.9809 200.009 45.4209 203.369 45.4209C206.799 45.4209 209.809 45.9809 212.47 47.101C215.13 48.221 217.44 49.7611 219.26 51.7212C221.15 53.6813 222.55 55.9915 223.53 58.6516C224.51 61.3118 225 64.1819 225 67.3321C225 68.1721 225 69.0122 224.93 69.9222C224.86 70.8323 224.86 71.3223 224.86 71.4623L192.029 71.3923C192.659 74.1224 193.919 76.2926 195.949 77.9026C197.909 79.5127 200.429 80.3528 203.439 80.3528C206.099 80.3528 208.339 79.8628 210.159 78.8127C212.05 77.7626 213.59 76.4326 214.85 74.6825L223.53 80.0028ZM203.229 54.9414C200.499 54.9414 198.189 55.6414 196.369 56.9715C194.549 58.3716 193.219 60.2617 192.449 62.7118H213.31C212.68 60.1217 211.42 58.1616 209.529 56.8315C207.709 55.5714 205.609 54.9414 203.229 54.9414Z" fill="#1D2235"/>
<path d="M36.6204 47.104H25V90.0862H36.6204V47.104Z" fill="#1D2235"/>
<path d="M72.8813 42.1977C70.4312 42.1977 68.1911 42.6877 66.091 43.5978C63.991 44.5078 62.2409 45.7679 60.7008 47.378C59.1607 48.9881 57.9707 50.8081 57.1307 52.9783C56.2907 55.1484 55.8006 57.4585 55.8006 59.9086C55.8006 62.4288 56.2207 64.7389 57.1307 66.979C57.9707 69.1491 59.2307 71.0392 60.7708 72.6493C62.3108 74.2594 64.2009 75.5195 66.371 76.4295C68.5411 77.3396 70.8512 77.8296 73.3713 77.8296C76.8714 77.8296 79.9516 76.9895 82.6117 75.3095C85.2718 73.6294 87.3719 71.3892 89.0519 68.5191L99.2023 75.5895C96.4022 80.1397 92.9021 83.6399 88.7019 86.16C84.5018 88.6802 79.4615 89.9402 73.5813 89.9402C69.1712 89.9402 65.111 89.1702 61.3309 87.6301C57.5507 86.09 54.2606 83.9899 51.5305 81.2598C48.8004 78.5296 46.6303 75.3795 45.0202 71.7393C43.4802 68.0991 42.6401 64.1789 42.6401 59.9786C42.6401 55.7784 43.4102 51.8582 45.0202 48.288C46.5603 44.7178 48.7304 41.5677 51.4604 38.8375C54.1905 36.1774 57.4106 34.0773 61.1208 32.5372C64.8309 30.9971 68.8912 30.2271 73.3013 30.2271C78.9715 30.2271 83.9417 31.5571 88.3519 33.7272C92.5521 35.8274 98.0123 39.2575 101.372 47.168L91.0819 54.3083C89.4019 51.5082 84.9217 46.6079 82.4017 44.8578C79.6715 43.0377 76.5914 42.1977 72.8813 42.1977Z" fill="#00B1FF"/>
<path d="M76.0321 23.2964H70.7119V38.1371H76.0321V23.2964Z" fill="#00B1FF"/>
<path d="M73.369 25.2608C77.5831 25.2608 80.9993 21.8445 80.9993 17.6304C80.9993 13.4162 77.5831 10 73.369 10C69.1549 10 65.7388 13.4162 65.7388 17.6304C65.7388 21.8445 69.1549 25.2608 73.369 25.2608Z" fill="#00B1FF"/>
<path d="M80.0198 60.1964C82.8421 60.1964 85.13 57.8772 85.13 55.0162C85.13 52.1552 82.8421 49.8359 80.0198 49.8359C77.1976 49.8359 74.9097 52.1552 74.9097 55.0162C74.9097 57.8772 77.1976 60.1964 80.0198 60.1964Z" fill="#1D2235"/>
<path d="M67.284 60.1964C70.1063 60.1964 72.3942 57.8772 72.3942 55.0162C72.3942 52.1552 70.1063 49.8359 67.284 49.8359C64.4617 49.8359 62.1738 52.1552 62.1738 55.0162C62.1738 57.8772 64.4617 60.1964 67.284 60.1964Z" fill="#1D2235"/>
<path d="M68.6118 53.4756C69.3464 53.4756 69.9418 52.8801 69.9418 52.1456C69.9418 51.411 69.3464 50.8154 68.6118 50.8154C67.8772 50.8154 67.2817 51.411 67.2817 52.1456C67.2817 52.8801 67.8772 53.4756 68.6118 53.4756Z" fill="white"/>
<path d="M81.9843 53.4756C82.7189 53.4756 83.3144 52.8801 83.3144 52.1456C83.3144 51.411 82.7189 50.8154 81.9843 50.8154C81.2498 50.8154 80.6543 51.411 80.6543 52.1456C80.6543 52.8801 81.2498 53.4756 81.9843 53.4756Z" fill="white"/>
</svg>
